<svg width="637" height="229" viewBox="0 0 637 229" fill="none" xmlns="http://www.w3.org/2000/svg">
<path d="M141.016 5.76562L138.32 6.15625L138.789 1.23438H162.695L161.953 5.76562C158.75 5.76562 156.732 5.88281 155.898 6.11719C155.065 6.35156 154.518 6.63802 154.258 6.97656C154.023 7.28906 153.906 7.70573 153.906 8.22656C153.906 8.7474 153.945 9.1901 154.023 9.55469C154.128 9.89323 154.336 10.5703 154.648 11.5859C162.174 35.987 166.185 49.0469 166.68 50.7656C174.128 30.375 178.203 19.1641 178.906 17.1328C180.469 12.6016 181.237 9.90625 181.211 9.04688C181.211 8.16146 181.094 7.53646 180.859 7.17188C180.625 6.78125 180.326 6.48177 179.961 6.27344C179.336 5.9349 178.411 5.76562 177.188 5.76562C175.964 5.76562 174.753 5.92188 173.555 6.23438L173.984 1.23438H194.531L193.984 5.76562C191.901 5.76562 190.547 6 189.922 6.46875C188.906 7.17188 188.164 8.22656 187.695 9.63281L169.062 60.4922C166.25 60.6745 164.232 61.0521 163.008 61.625L162.617 61.5859L149.062 21.3906C141.276 44.6458 137.201 56.8594 136.836 58.0312L136.211 59.9844C136.133 60.1927 136.081 60.362 136.055 60.4922C133.242 60.6745 131.224 61.0521 130 61.625L129.609 61.5859C119.479 34.2422 113.685 18.7344 112.227 15.0625L110.82 11.0781C109.935 8.68229 109.167 7.19792 108.516 6.625C107.891 6.05208 107.188 5.76562 106.406 5.76562C105.625 5.76562 104.792 5.94792 103.906 6.3125L104.414 1.23438H126.797L126.211 5.76562C123.503 5.76562 121.797 5.86979 121.094 6.07812C119.818 6.44271 119.18 7.1849 119.18 8.30469C119.18 9.0599 119.388 10.0625 119.805 11.3125L133.359 50.2188L146.211 12.5625C144.753 8.03125 143.021 5.76562 141.016 5.76562ZM212.188 55.1016C212.578 55.7266 213.06 56.1562 213.633 56.3906C214.232 56.599 214.883 56.7031 215.586 56.7031C216.315 56.7031 217.656 56.5078 219.609 56.1172L219.141 61H195.195L195.625 56.7031C198.177 56.7031 200.026 56.1042 201.172 54.9062C202.5 53.474 203.164 51.0651 203.164 47.6797L203.125 13.5781C203.125 9.15104 202.461 6.63802 201.133 6.03906C200.716 5.85677 200.234 5.76562 199.688 5.76562C198.151 5.76562 196.758 5.88281 195.508 6.11719L196.133 1.23438H218.984L218.359 5.76562C215.417 5.76562 213.542 6.26042 212.734 7.25C211.979 8.13542 211.602 10.1536 211.602 13.3047V50.4141C211.602 52.9141 211.797 54.4766 212.188 55.1016ZM273.828 43.5391C273.958 44.9714 274.023 46.4557 274.023 47.9922C274.023 50.1536 273.789 52.5104 273.32 55.0625C272.695 58.3438 272.357 60.3229 272.305 61H226.523L226.992 56.5078C229.492 56.5599 231.237 56.0521 232.227 54.9844C233.398 53.7604 233.984 51.4557 233.984 48.0703L233.945 12.25C233.945 9.4375 233.763 7.71875 233.398 7.09375C233.034 6.46875 232.643 6.09115 232.227 5.96094C231.836 5.83073 231.276 5.76562 230.547 5.76562C229.844 5.76562 229.232 5.81771 228.711 5.92188C228.086 6.07812 227.669 6.15625 227.461 6.15625L228.086 1.23438H251.523L250.977 5.80469C247.617 5.80469 245.521 6.0651 244.688 6.58594C243.854 7.10677 243.281 7.78385 242.969 8.61719C242.682 9.45052 242.539 10.5833 242.539 12.0156L242.578 13.2266V50.0625C242.578 53.9167 243.854 56.0651 246.406 56.5078C247.161 56.638 247.969 56.7031 248.828 56.7031H255.273C262.435 56.7031 266.706 53.9557 268.086 48.4609C268.503 46.8724 268.802 45.2318 268.984 43.5391H273.828ZM327.266 43.5391C327.396 44.9714 327.461 46.4557 327.461 47.9922C327.461 50.1536 327.227 52.5104 326.758 55.0625C326.133 58.3438 325.794 60.3229 325.742 61H279.961L280.43 56.5078C282.93 56.5599 284.674 56.0521 285.664 54.9844C286.836 53.7604 287.422 51.4557 287.422 48.0703L287.383 12.25C287.383 9.4375 287.201 7.71875 286.836 7.09375C286.471 6.46875 286.081 6.09115 285.664 5.96094C285.273 5.83073 284.714 5.76562 283.984 5.76562C283.281 5.76562 282.669 5.81771 282.148 5.92188C281.523 6.07812 281.107 6.15625 280.898 6.15625L281.523 1.23438H304.961L304.414 5.80469C301.055 5.80469 298.958 6.0651 298.125 6.58594C297.292 7.10677 296.719 7.78385 296.406 8.61719C296.12 9.45052 295.977 10.5833 295.977 12.0156L296.016 13.2266V50.0625C296.016 53.9167 297.292 56.0651 299.844 56.5078C300.599 56.638 301.406 56.7031 302.266 56.7031H308.711C315.872 56.7031 320.143 53.9557 321.523 48.4609C321.94 46.8724 322.24 45.2318 322.422 43.5391H327.266ZM393.047 54.6719C393.359 55.5052 393.776 56.0651 394.297 56.3516C394.844 56.612 395.846 56.7422 397.305 56.7422C398.763 56.7422 400.326 56.5339 401.992 56.1172L401.641 61H374.375L374.688 56.7422H376.367C379.701 56.7422 381.745 56.4297 382.5 55.8047C383.255 55.1536 383.724 54.3984 383.906 53.5391C384.115 52.6536 384.219 51.4948 384.219 50.0625V40.1406L365.508 9.08594C364.674 7.86198 363.88 7.06771 363.125 6.70312C361.797 6.07812 360.221 5.76562 358.398 5.76562L358.984 1.23438H382.734L381.719 5.76562C379.036 5.76562 377.383 5.88281 376.758 6.11719C376.159 6.32552 375.742 6.61198 375.508 6.97656C375.299 7.3151 375.195 7.82292 375.195 8.5C375.195 9.15104 375.378 9.95833 375.742 10.9219C376.107 11.8594 376.589 12.901 377.188 14.0469C377.812 15.1927 378.529 16.4167 379.336 17.7188L384.492 25.9219C385.378 27.3542 386.198 28.7734 386.953 30.1797L389.258 35.0625C393.216 27.6927 395.664 23.0443 396.602 21.1172L399.023 16.0781C400.508 12.875 401.302 10.9219 401.406 10.2188C401.51 9.48958 401.549 8.89062 401.523 8.42188C401.523 7.95312 401.419 7.52344 401.211 7.13281C400.69 6.22135 399.648 5.76562 398.086 5.76562C397.044 5.76562 395.742 5.92188 394.18 6.23438L394.766 1.23438H416.562L415.82 5.76562C413.555 5.76562 412.005 6.07812 411.172 6.70312C409.896 7.69271 408.607 9.54167 407.305 12.25L392.578 40.1406V47.4062C392.578 51.4167 392.734 53.8385 393.047 54.6719ZM426.055 53.9688C423.685 51.4688 421.836 48.3958 420.508 44.75C419.206 41.1042 418.594 37.0417 418.672 32.5625C418.75 28.0573 419.466 23.8906 420.82 20.0625C422.201 16.2344 424.18 12.875 426.758 9.98438C432.331 3.73438 439.831 0.609375 449.258 0.609375C457.201 0.609375 463.62 3.1875 468.516 8.34375C473.542 13.6562 476.055 20.8307 476.055 29.8672C475.716 38.7734 472.969 46.1823 467.812 52.0938C464.323 56.0781 459.87 58.8516 454.453 60.4141C451.719 61.1953 448.555 61.5859 444.961 61.5859C441.393 61.5859 437.943 60.9479 434.609 59.6719C431.302 58.3698 428.451 56.4688 426.055 53.9688ZM432.773 49.0859C434.414 51.4557 436.458 53.3047 438.906 54.6328C441.38 55.9609 444.076 56.625 446.992 56.625C449.935 56.625 452.552 56.1302 454.844 55.1406C457.161 54.151 459.18 52.6406 460.898 50.6094C464.622 46.2344 466.536 40.1536 466.641 32.3672C466.797 24.2943 465.234 17.862 461.953 13.0703C458.516 8.09635 453.607 5.60938 447.227 5.60938C441.706 5.60938 437.24 7.58854 433.828 11.5469C430.13 15.8177 428.203 21.8724 428.047 29.7109C427.891 37.8359 429.466 44.2943 432.773 49.0859ZM527.188 8.03125C526.745 7.06771 526.263 6.45573 525.742 6.19531C525.247 5.90885 524.622 5.76562 523.867 5.76562C523.112 5.76562 522.018 5.92188 520.586 6.23438L521.016 1.23438H539.805L539.219 5.76562C536.745 5.76562 535.195 6.33854 534.57 7.48438C534.049 8.47396 533.789 10.7786 533.789 14.3984V37.1719C533.789 45.1927 531.966 51.2734 528.32 55.4141C524.701 59.5286 519.089 61.5859 511.484 61.5859C503.49 61.5859 497.539 59.3203 493.633 54.7891C490.065 50.6224 488.281 44.6589 488.281 36.8984V21.3906L488.242 14.0469V11.7812C488.242 8.99479 488.047 7.32812 487.656 6.78125C487.292 6.23438 486.914 5.9349 486.523 5.88281C486.133 5.80469 485.742 5.76562 485.352 5.76562C484.544 5.76562 483.451 5.92188 482.07 6.23438L482.617 1.23438H504.609L504.023 5.76562C500.82 5.76562 498.815 6.19531 498.008 7.05469C497.227 7.88802 496.836 9.97135 496.836 13.3047V35.7656C496.836 49.6719 501.706 56.625 511.445 56.625C514.805 56.625 517.331 56.2474 519.023 55.4922C520.716 54.737 522.057 53.8776 523.047 52.9141C524.062 51.9505 524.935 50.7135 525.664 49.2031C527.148 46 527.891 41.651 527.891 36.1562V14.2812C527.891 11.0781 527.656 8.99479 527.188 8.03125ZM170.117 84.3906C170.169 85.4323 170.195 87.2682 170.195 89.8984C170.195 92.5026 169.779 96.0443 168.945 100.523H164.648C164.492 93.9349 161.888 89.9635 156.836 88.6094C155.247 88.1667 153.372 87.9453 151.211 87.9453C149.049 87.9453 147.214 88.2318 145.703 88.8047C144.219 89.3776 143.06 90.1198 142.227 91.0312C140.742 92.6198 140.065 94.7031 140.195 97.2812C140.404 101.24 143.268 104.651 148.789 107.516C150.43 108.375 152.07 109.169 153.711 109.898C155.378 110.628 156.927 111.357 158.359 112.086C159.818 112.789 161.224 113.57 162.578 114.43C163.932 115.263 165.195 116.161 166.367 117.125C167.565 118.089 168.62 119.143 169.531 120.289C171.458 122.737 172.526 125.38 172.734 128.219C172.734 133.505 170.638 137.62 166.445 140.562C162.565 143.271 157.448 144.625 151.094 144.625C149.062 144.625 146.224 144.286 142.578 143.609C138.932 142.932 136.393 142.594 134.961 142.594C133.555 142.594 132.331 142.672 131.289 142.828L130.977 142.75C130.951 142.177 130.938 141.604 130.938 141.031V139.391C130.938 133.896 131.237 129.443 131.836 126.031H136.25C136.562 133.349 139.206 137.828 144.18 139.469C145.951 140.068 147.943 140.367 150.156 140.367C152.396 140.367 154.323 140.12 155.938 139.625C157.552 139.104 158.932 138.401 160.078 137.516C162.474 135.667 163.672 133.297 163.672 130.406C163.411 126.292 160.273 122.802 154.258 119.938C152.513 119.104 151.107 118.453 150.039 117.984L148.047 117.125C147.76 116.995 147.057 116.695 145.938 116.227C144.844 115.758 143.372 114.951 141.523 113.805C139.701 112.659 138.073 111.344 136.641 109.859C133.516 106.604 131.901 102.893 131.797 98.7266C131.693 94.2214 133.555 90.5625 137.383 87.75C141.133 85.0156 146.055 83.6484 152.148 83.6484C153.086 83.6484 154.518 83.7656 156.445 84L161.367 84.625C162.773 84.8073 164.18 84.8984 165.586 84.8984C167.018 84.8984 168.529 84.7292 170.117 84.3906ZM224.141 91.0312C223.698 90.0677 223.216 89.4557 222.695 89.1953C222.201 88.9089 221.576 88.7656 220.82 88.7656C220.065 88.7656 218.971 88.9219 217.539 89.2344L217.969 84.2344H236.758L236.172 88.7656C233.698 88.7656 232.148 89.3385 231.523 90.4844C231.003 91.474 230.742 93.7786 230.742 97.3984V120.172C230.742 128.193 228.919 134.273 225.273 138.414C221.654 142.529 216.042 144.586 208.438 144.586C200.443 144.586 194.492 142.32 190.586 137.789C187.018 133.622 185.234 127.659 185.234 119.898V104.391L185.195 97.0469V94.7812C185.195 91.9948 185 90.3281 184.609 89.7812C184.245 89.2344 183.867 88.9349 183.477 88.8828C183.086 88.8047 182.695 88.7656 182.305 88.7656C181.497 88.7656 180.404 88.9219 179.023 89.2344L179.57 84.2344H201.562L200.977 88.7656C197.773 88.7656 195.768 89.1953 194.961 90.0547C194.18 90.888 193.789 92.9714 193.789 96.3047V118.766C193.789 132.672 198.659 139.625 208.398 139.625C211.758 139.625 214.284 139.247 215.977 138.492C217.669 137.737 219.01 136.878 220 135.914C221.016 134.951 221.888 133.714 222.617 132.203C224.102 129 224.844 124.651 224.844 119.156V97.2812C224.844 94.0781 224.609 91.9948 224.141 91.0312ZM258.516 137.828C258.932 138.531 259.427 139.026 260 139.312C260.573 139.573 261.406 139.703 262.5 139.703C263.62 139.703 265.013 139.495 266.68 139.078L266.25 144H243.203L243.672 139.703C246.354 139.651 248.06 138.948 248.789 137.594C249.414 136.5 249.727 134.078 249.727 130.328L249.688 95.1328C249.688 92.5807 249.57 91.0052 249.336 90.4062C248.867 89.3125 247.799 88.7656 246.133 88.7656C244.805 88.7656 243.451 88.9219 242.07 89.2344L242.695 84.2344H253.945L269.805 83.6484C279.388 83.6484 285.456 86.6302 288.008 92.5938C288.789 94.4688 289.18 96.5911 289.18 98.9609C289.18 101.305 288.75 103.453 287.891 105.406C287.031 107.359 285.924 109.078 284.57 110.562C281.862 113.531 278.711 115.445 275.117 116.305C277.721 117.633 280.534 120.849 283.555 125.953L288.047 133.609C290.365 137.438 292.174 139.352 293.477 139.352C294.492 139.404 295.599 139.234 296.797 138.844L296.602 144H290.664C286.732 144 283.555 142.659 281.133 139.977C279.935 138.466 278.88 136.513 277.969 134.117L275.82 128.648C274.857 126.253 273.711 124.182 272.383 122.438C271.055 120.667 269.935 119.482 269.023 118.883C267.357 117.815 264.753 117.281 261.211 117.281H257.93V133.062C257.93 135.536 258.125 137.125 258.516 137.828ZM272.539 89C270.872 88.4531 269.388 88.1797 268.086 88.1797H263.242C261.289 88.1797 259.518 88.388 257.93 88.8047V112.594H267.344C270.885 112.542 273.841 111.448 276.211 109.312C278.737 106.995 280 103.948 280 100.172C280 94.2865 277.513 90.5625 272.539 89ZM328.711 143.492C326.471 143.492 324.648 143.87 323.242 144.625L322.891 144.586L309.414 112.672C306.393 105.25 304.531 100.615 303.828 98.7656C303.151 96.9167 302.578 95.4323 302.109 94.3125C301.641 93.1667 301.185 92.1771 300.742 91.3438C299.779 89.625 298.763 88.7656 297.695 88.7656C297.096 88.7656 296.354 88.8958 295.469 89.1562L296.016 84.2344H318.828L318.125 88.7656C313.125 88.7656 310.625 89.6641 310.625 91.4609C310.625 91.8255 310.677 92.151 310.781 92.4375C320.651 118.661 325.938 132.659 326.641 134.43L337.305 104.234L339.18 98.4531C340.326 94.7292 340.885 92.5156 340.859 91.8125C340.859 91.1094 340.755 90.5755 340.547 90.2109C340.365 89.8203 340.117 89.5208 339.805 89.3125C339.31 88.9479 338.451 88.7656 337.227 88.7656C336.029 88.7656 334.87 88.9219 333.75 89.2344L334.141 84.2344H354.062L353.555 88.7656C351.497 88.7656 350.156 89 349.531 89.4688C348.932 89.9115 348.477 90.4453 348.164 91.0703C347.852 91.6693 347.539 92.4245 347.227 93.3359L328.711 143.492ZM372.422 138.102C372.812 138.727 373.294 139.156 373.867 139.391C374.466 139.599 375.117 139.703 375.82 139.703C376.549 139.703 377.891 139.508 379.844 139.117L379.375 144H355.43L355.859 139.703C358.411 139.703 360.26 139.104 361.406 137.906C362.734 136.474 363.398 134.065 363.398 130.68L363.359 96.5781C363.359 92.151 362.695 89.638 361.367 89.0391C360.951 88.8568 360.469 88.7656 359.922 88.7656C358.385 88.7656 356.992 88.8828 355.742 89.1172L356.367 84.2344H379.219L378.594 88.7656C375.651 88.7656 373.776 89.2604 372.969 90.25C372.214 91.1354 371.836 93.1536 371.836 96.3047V133.414C371.836 135.914 372.031 137.477 372.422 138.102ZM415.352 143.492C413.112 143.492 411.289 143.87 409.883 144.625L409.531 144.586L396.055 112.672C393.034 105.25 391.172 100.615 390.469 98.7656C389.792 96.9167 389.219 95.4323 388.75 94.3125C388.281 93.1667 387.826 92.1771 387.383 91.3438C386.419 89.625 385.404 88.7656 384.336 88.7656C383.737 88.7656 382.995 88.8958 382.109 89.1562L382.656 84.2344H405.469L404.766 88.7656C399.766 88.7656 397.266 89.6641 397.266 91.4609C397.266 91.8255 397.318 92.151 397.422 92.4375C407.292 118.661 412.578 132.659 413.281 134.43L423.945 104.234L425.82 98.4531C426.966 94.7292 427.526 92.5156 427.5 91.8125C427.5 91.1094 427.396 90.5755 427.188 90.2109C427.005 89.8203 426.758 89.5208 426.445 89.3125C425.951 88.9479 425.091 88.7656 423.867 88.7656C422.669 88.7656 421.51 88.9219 420.391 89.2344L420.781 84.2344H440.703L440.195 88.7656C438.138 88.7656 436.797 89 436.172 89.4688C435.573 89.9115 435.117 90.4453 434.805 91.0703C434.492 91.6693 434.18 92.4245 433.867 93.3359L415.352 143.492ZM474.922 120.562L474.844 121.812H470.039C469.857 118.87 469.518 117.021 469.023 116.266C468.138 114.938 466.536 114.273 464.219 114.273H456.367V133.102C456.367 135.628 456.849 137.307 457.812 138.141C458.75 138.948 460.768 139.404 463.867 139.508H471.328C476.536 139.508 480.13 137.255 482.109 132.75C482.734 131.344 483.151 129.755 483.359 127.984H488.203C488.203 130.953 487.904 134.078 487.305 137.359L486.133 144H441.016L441.68 139.703C444.284 139.703 445.99 139.13 446.797 137.984C447.526 136.995 447.891 135.003 447.891 132.008V96.3047C447.891 91.2786 446.758 88.7656 444.492 88.7656C443.555 88.7656 442.565 88.8828 441.523 89.1172L441.992 84.2344H472.305C478.581 84.2344 483.281 84.026 486.406 83.6094C486.406 87.776 486.003 91.9427 485.195 96.1094C484.987 97.099 484.805 97.8542 484.648 98.375H480.664C480.404 94.1562 479.596 91.487 478.242 90.3672C477.487 89.7422 476.497 89.3516 475.273 89.1953C474.076 89.0391 472.565 88.9609 470.742 88.9609H456.367V109.859H464.453C467.057 109.859 468.763 109.299 469.57 108.18C470.091 107.477 470.508 105.836 470.82 103.258L475.586 103.219L475.625 105.289C475.625 108.596 475.391 113.688 474.922 120.562ZM54.0625 169.344L53.5938 182.938H48.0859C48.0859 180.646 48.0339 178.797 47.9297 177.391C47.8255 175.984 47.487 174.891 46.9141 174.109C46.3672 173.328 45.4948 172.807 44.2969 172.547C43.099 172.26 41.4193 172.091 39.2578 172.039H31.875V215.672C31.875 218.641 32.0964 220.464 32.5391 221.141C33.0078 221.792 33.5547 222.208 34.1797 222.391C34.8047 222.547 35.4167 222.625 36.0156 222.625C36.6406 222.625 37.2396 222.612 37.8125 222.586C38.3854 222.534 38.9974 222.469 39.6484 222.391C41.3932 222.234 42.4349 222.104 42.7734 222L42.3047 227L12.3047 226.961L12.6172 222.625C15.1693 222.625 17.1484 222.547 18.5547 222.391C19.987 222.234 21.0417 221.896 21.7188 221.375C22.4219 220.828 22.8516 220.047 23.0078 219.031C23.1641 217.99 23.2422 216.583 23.2422 214.812V172.039H17.1094C12.7865 172.143 9.86979 172.938 8.35938 174.422C6.875 175.88 5.95052 178.719 5.58594 182.938H0.117188C0.351562 180.854 0.651042 178.693 1.01562 176.453C1.38021 174.188 1.65365 172.417 1.83594 171.141L2.38281 167.234H53.9844C54.0365 167.521 54.0625 167.833 54.0625 168.172V169.344ZM115.586 222.43C116.003 222.612 116.523 222.703 117.148 222.703C117.773 222.703 118.815 222.521 120.273 222.156L119.805 227H98.2812L98.9844 222.703C101.51 222.703 103.229 222.026 104.141 220.672C104.896 219.5 105.273 217.352 105.273 214.227V198.641H76.4453V216.492C76.4453 219.279 76.5625 220.958 76.7969 221.531C77.0573 222.078 77.3438 222.417 77.6562 222.547C77.9948 222.651 78.5156 222.703 79.2188 222.703C80.5208 222.703 82.0052 222.495 83.6719 222.078L83.0859 227H61.0938L61.7578 222.703C64.362 222.703 66.0677 222.13 66.875 220.984C67.6042 219.995 67.9688 218.003 67.9688 215.008V179.305C67.9688 174.279 66.862 171.766 64.6484 171.766C63.7109 171.766 62.6953 171.883 61.6016 172.117L62.0703 167.234H82.8906L82.3047 171.766C81.1068 171.766 80.1302 171.831 79.375 171.961C78.6198 172.091 78.0208 172.417 77.5781 172.938C76.8229 173.875 76.4453 176.167 76.4453 179.812V193.719H105.273V179.578C105.273 176.297 105.091 174.266 104.727 173.484C104.388 172.703 104.01 172.221 103.594 172.039C103.177 171.857 102.578 171.766 101.797 171.766C100.573 171.766 99.2708 171.922 97.8906 172.234L98.6328 167.234H120.352L119.805 171.766C117.513 171.766 115.964 172.247 115.156 173.211C114.193 174.331 113.711 176.466 113.711 179.617V216.922C113.711 220.047 114.336 221.883 115.586 222.43ZM161.523 203.562L161.445 204.812H156.641C156.458 201.87 156.12 200.021 155.625 199.266C154.74 197.938 153.138 197.273 150.82 197.273H142.969V216.102C142.969 218.628 143.451 220.307 144.414 221.141C145.352 221.948 147.37 222.404 150.469 222.508H157.93C163.138 222.508 166.732 220.255 168.711 215.75C169.336 214.344 169.753 212.755 169.961 210.984H174.805C174.805 213.953 174.505 217.078 173.906 220.359L172.734 227H127.617L128.281 222.703C130.885 222.703 132.591 222.13 133.398 220.984C134.128 219.995 134.492 218.003 134.492 215.008V179.305C134.492 174.279 133.359 171.766 131.094 171.766C130.156 171.766 129.167 171.883 128.125 172.117L128.594 167.234H158.906C165.182 167.234 169.883 167.026 173.008 166.609C173.008 170.776 172.604 174.943 171.797 179.109C171.589 180.099 171.406 180.854 171.25 181.375H167.266C167.005 177.156 166.198 174.487 164.844 173.367C164.089 172.742 163.099 172.352 161.875 172.195C160.677 172.039 159.167 171.961 157.344 171.961H142.969V192.859H151.055C153.659 192.859 155.365 192.299 156.172 191.18C156.693 190.477 157.109 188.836 157.422 186.258L162.188 186.219L162.227 188.289C162.227 191.596 161.992 196.688 161.523 203.562ZM263.75 169.344L263.281 182.938H257.773C257.773 180.646 257.721 178.797 257.617 177.391C257.513 175.984 257.174 174.891 256.602 174.109C256.055 173.328 255.182 172.807 253.984 172.547C252.786 172.26 251.107 172.091 248.945 172.039H241.562V215.672C241.562 218.641 241.784 220.464 242.227 221.141C242.695 221.792 243.242 222.208 243.867 222.391C244.492 222.547 245.104 222.625 245.703 222.625C246.328 222.625 246.927 222.612 247.5 222.586C248.073 222.534 248.685 222.469 249.336 222.391C251.081 222.234 252.122 222.104 252.461 222L251.992 227L221.992 226.961L222.305 222.625C224.857 222.625 226.836 222.547 228.242 222.391C229.674 222.234 230.729 221.896 231.406 221.375C232.109 220.828 232.539 220.047 232.695 219.031C232.852 217.99 232.93 216.583 232.93 214.812V172.039H226.797C222.474 172.143 219.557 172.938 218.047 174.422C216.562 175.88 215.638 178.719 215.273 182.938H209.805C210.039 180.854 210.339 178.693 210.703 176.453C211.068 174.188 211.341 172.417 211.523 171.141L212.07 167.234H263.672C263.724 167.521 263.75 167.833 263.75 168.172V169.344ZM288.711 221.102C289.102 221.727 289.583 222.156 290.156 222.391C290.755 222.599 291.406 222.703 292.109 222.703C292.839 222.703 294.18 222.508 296.133 222.117L295.664 227H271.719L272.148 222.703C274.701 222.703 276.549 222.104 277.695 220.906C279.023 219.474 279.688 217.065 279.688 213.68L279.648 179.578C279.648 175.151 278.984 172.638 277.656 172.039C277.24 171.857 276.758 171.766 276.211 171.766C274.674 171.766 273.281 171.883 272.031 172.117L272.656 167.234H295.508L294.883 171.766C291.94 171.766 290.065 172.26 289.258 173.25C288.503 174.135 288.125 176.154 288.125 179.305V216.414C288.125 218.914 288.32 220.477 288.711 221.102ZM357.109 169.344L356.641 182.938H351.133C351.133 180.646 351.081 178.797 350.977 177.391C350.872 175.984 350.534 174.891 349.961 174.109C349.414 173.328 348.542 172.807 347.344 172.547C346.146 172.26 344.466 172.091 342.305 172.039H334.922V215.672C334.922 218.641 335.143 220.464 335.586 221.141C336.055 221.792 336.602 222.208 337.227 222.391C337.852 222.547 338.464 222.625 339.062 222.625C339.688 222.625 340.286 222.612 340.859 222.586C341.432 222.534 342.044 222.469 342.695 222.391C344.44 222.234 345.482 222.104 345.82 222L345.352 227L315.352 226.961L315.664 222.625C318.216 222.625 320.195 222.547 321.602 222.391C323.034 222.234 324.089 221.896 324.766 221.375C325.469 220.828 325.898 220.047 326.055 219.031C326.211 217.99 326.289 216.583 326.289 214.812V172.039H320.156C315.833 172.143 312.917 172.938 311.406 174.422C309.922 175.88 308.997 178.719 308.633 182.938H303.164C303.398 180.854 303.698 178.693 304.062 176.453C304.427 174.188 304.701 172.417 304.883 171.141L305.43 167.234H357.031C357.083 167.521 357.109 167.833 357.109 168.172V169.344ZM360.977 222.742C362.956 222.742 364.284 222.482 364.961 221.961C366.003 221.154 366.914 219.812 367.695 217.938H367.656L387.188 167.234C388.646 167.234 390.052 167.013 391.406 166.57C392.76 166.128 393.607 165.789 393.945 165.555L411.992 213.914C413.398 218.003 414.948 220.724 416.641 222.078C417.161 222.495 417.643 222.703 418.086 222.703C419.388 222.703 420.43 222.456 421.211 221.961L420.352 227H397.109L397.695 222.703C402.096 222.781 404.479 221.948 404.844 220.203C404.974 219.682 404.974 219.109 404.844 218.484L399.844 205.242H378.984L373.984 219.539C373.49 220.737 373.776 221.688 374.844 222.391C375.13 222.599 375.664 222.703 376.445 222.703C377.253 222.703 377.943 222.677 378.516 222.625C379.922 222.547 380.964 222.378 381.641 222.117L381.016 227H360.469L360.977 222.742ZM398.047 200.438L389.062 176.57L380.664 200.438H398.047ZM479.609 226.336C477.5 226.518 475.781 226.987 474.453 227.742C472.734 225.164 470.703 222.273 468.359 219.07L460.82 208.914L452.266 197.859L436.719 178.172V215.242C436.719 217.924 436.966 219.708 437.461 220.594C437.982 221.479 438.503 222.052 439.023 222.312C439.544 222.573 440.104 222.703 440.703 222.703C441.302 222.703 441.862 222.69 442.383 222.664C442.904 222.612 443.398 222.547 443.867 222.469L445.156 222.312C445.573 222.26 445.898 222.208 446.133 222.156L445.664 227H423.867L424.375 222.703C426.797 222.703 428.359 222.43 429.062 221.883C430.391 220.841 431.055 218.849 431.055 215.906V179.305C431.055 176.414 430.885 174.604 430.547 173.875C430.208 173.12 429.805 172.638 429.336 172.43C428.893 172.195 428.333 172.078 427.656 172.078C426.823 172.078 425.508 172.221 423.711 172.508L424.297 167.234H440.625C441.458 169.734 442.669 172.078 444.258 174.266L449.375 181.219C463.073 198.979 471.068 209.253 473.359 212.039V178.406C473.359 175.359 473.203 173.549 472.891 172.977C472.578 172.378 472.201 172.026 471.758 171.922C471.341 171.792 470.69 171.727 469.805 171.727C468.945 171.727 467.591 171.87 465.742 172.156L466.172 167.234H486.25L485.703 171.727C484.219 171.727 483.034 171.753 482.148 171.805C481.263 171.831 480.599 172.026 480.156 172.391C479.401 172.938 479.023 174.617 479.023 177.43V217.117C479.023 220.138 479.219 223.211 479.609 226.336ZM508.633 221.102C509.023 221.727 509.505 222.156 510.078 222.391C510.677 222.599 511.328 222.703 512.031 222.703C512.76 222.703 514.102 222.508 516.055 222.117L515.586 227H491.641L492.07 222.703C494.622 222.703 496.471 222.104 497.617 220.906C498.945 219.474 499.609 217.065 499.609 213.68L499.57 179.578C499.57 175.151 498.906 172.638 497.578 172.039C497.161 171.857 496.68 171.766 496.133 171.766C494.596 171.766 493.203 171.883 491.953 172.117L492.578 167.234H515.43L514.805 171.766C511.862 171.766 509.987 172.26 509.18 173.25C508.424 174.135 508.047 176.154 508.047 179.305V216.414C508.047 218.914 508.242 220.477 508.633 221.102ZM580.703 211.023C580.755 211.544 580.781 212.208 580.781 213.016C580.781 213.797 580.729 214.708 580.625 215.75C580.547 216.766 580.443 217.755 580.312 218.719C579.974 220.906 579.635 222.469 579.297 223.406C573.724 226.193 566.484 227.586 557.578 227.586C549.245 227.586 542.135 225.385 536.25 220.984C531.953 217.781 528.945 213.289 527.227 207.508C526.341 204.539 525.898 200.932 525.898 196.688C525.898 192.417 526.719 188.393 528.359 184.617C530 180.815 532.292 177.586 535.234 174.93C541.354 169.409 549.297 166.648 559.062 166.648C560.885 166.648 563.268 166.818 566.211 167.156C569.154 167.495 571.081 167.703 571.992 167.781L574.648 168.055C576.654 168.237 577.969 168.328 578.594 168.328H579.844C580.026 168.328 580.312 168.302 580.703 168.25C580.755 168.875 580.781 170.346 580.781 172.664C580.781 174.982 580.365 178.875 579.531 184.344H574.531C574.036 180.411 573.411 177.69 572.656 176.18C570.495 172.716 565.768 170.984 558.477 170.984C551.185 170.984 545.495 173.38 541.406 178.172C537.5 182.729 535.547 188.758 535.547 196.258C535.547 204.93 537.995 211.714 542.891 216.609C547.37 221.089 552.839 223.328 559.297 223.328C563.958 223.328 567.5 222.443 569.922 220.672C572.37 218.875 574.336 215.659 575.82 211.023H580.703ZM622.695 208.719C621.836 208.979 620.391 209.109 618.359 209.109C616.328 209.109 614.805 208.94 613.789 208.602C612.773 208.263 611.888 207.768 611.133 207.117C609.518 205.737 608.711 203.888 608.711 201.57C608.711 197.977 610.651 194.591 614.531 191.414L621.172 186.062C624.948 182.911 626.836 179.526 626.836 175.906C626.836 172.26 625.781 169.331 623.672 167.117C621.641 165.008 619.18 163.953 616.289 163.953C610.482 163.953 606.771 166.544 605.156 171.727C604.688 173.289 604.453 175.06 604.453 177.039C602.526 177.039 600.43 176.857 598.164 176.492C597.773 174.747 597.578 172.964 597.578 171.141C597.578 168.745 597.643 166.701 597.773 165.008C598.893 164.721 599.922 164.396 600.859 164.031L606.406 161.727C609.766 160.346 613.464 159.656 617.5 159.656C622.24 159.656 626.367 160.594 629.883 162.469C632.773 163.979 634.818 166.232 636.016 169.227C636.667 170.789 636.992 172.56 636.992 174.539C636.992 176.518 636.628 178.263 635.898 179.773C635.169 181.258 634.219 182.638 633.047 183.914C631.875 185.19 630.573 186.375 629.141 187.469L621.602 192.898C618.138 195.477 616.406 197.911 616.406 200.203C616.406 202.417 617.344 203.641 619.219 203.875C619.74 203.953 620.26 203.992 620.781 203.992C621.302 203.992 621.927 203.901 622.656 203.719L622.695 208.719ZM610.742 221.961C610.742 220.268 611.354 218.823 612.578 217.625C613.828 216.427 615.299 215.828 616.992 215.828C618.685 215.828 620.156 216.427 621.406 217.625C622.63 218.823 623.242 220.268 623.242 221.961C623.242 223.628 622.63 225.073 621.406 226.297C620.182 227.521 618.711 228.133 616.992 228.133C615.273 228.133 613.802 227.521 612.578 226.297C611.354 225.073 610.742 223.628 610.742 221.961Z" fill="white"/>
</svg>
