<?xml version="1.0" encoding="iso-8859-1"?>
<!-- Generator: Adobe Illustrator 19.0.0, SVG Export Plug-In . SVG Version: 6.00 Build 0)  -->
<svg version="1.1" id="Capa_1" xmlns="http://www.w3.org/2000/svg" xmlns:xlink="http://www.w3.org/1999/xlink" x="0px" y="0px"
	 viewBox="0 0 464 464" style="enable-background:new 0 0 464 464;" xml:space="preserve">
<path style="fill:#6F3114;" d="M232,80c-83.947,0-152,68.053-152,152s68.053,152,152,152s152-68.053,152-152
	C383.907,148.091,315.909,80.093,232,80z M232,352c-66.274,0-120-53.726-120-120s53.726-120,120-120s120,53.726,120,120
	C351.925,298.243,298.243,351.925,232,352z"/>
<path style="fill:#572610;" d="M232,176c-30.928,0-56,25.072-56,56s25.072,56,56,56s56-25.072,56-56
	C287.965,201.087,262.913,176.035,232,176z M232,256c-13.255,0-24-10.745-24-24c0-13.255,10.745-24,24-24c13.255,0,24,10.745,24,24
	C256,245.255,245.255,256,232,256z"/>
<g>
	<path style="fill:#8A4325;" d="M216,48l8,32h16l8-32V16c0-8.837-7.163-16-16-16c-8.837,0-16,7.163-16,16V48z"/>
	<path style="fill:#8A4325;" d="M216,416l8-32h16l8,32v32c0,8.837-7.163,16-16,16c-8.837,0-16-7.163-16-16V416z"/>
	<path style="fill:#8A4325;" d="M90.576,113.208l28.288,16.968l11.312-11.312l-16.968-28.288L90.576,67.952
		c-6.248-6.246-16.376-6.246-22.624,0c-6.246,6.248-6.246,16.376,0,22.624L90.576,113.208z"/>
	<path style="fill:#8A4325;" d="M350.792,373.424l-16.968-28.288l11.312-11.312l28.288,16.968l22.624,22.632
		c6.246,6.248,6.246,16.376,0,22.624c-6.248,6.246-16.376,6.246-22.624,0L350.792,373.424z"/>
	<path style="fill:#8A4325;" d="M48,248l32-8v-16l-32-8H16c-8.837,0-16,7.163-16,16c0,8.837,7.163,16,16,16H48z"/>
	<path style="fill:#8A4325;" d="M416,248l-32-8v-16l32-8h32c8.837,0,16,7.163,16,16c0,8.837-7.163,16-16,16H416z"/>
	<path style="fill:#8A4325;" d="M113.208,373.424l16.968-28.288l-11.312-11.312l-28.288,16.968l-22.624,22.632
		c-6.246,6.248-6.246,16.376,0,22.624c6.248,6.246,16.376,6.246,22.624,0L113.208,373.424z"/>
	<path style="fill:#8A4325;" d="M373.424,113.208l-28.288,16.968l-11.312-11.312l16.968-28.288l22.632-22.624
		c6.248-6.246,16.376-6.246,22.624,0c6.246,6.248,6.246,16.376,0,22.624L373.424,113.208z"/>
	<path style="fill:#8A4325;" d="M224,112h16v64h-16V112z"/>
	<path style="fill:#8A4325;" d="M224,288h16v64h-16V288z"/>
	<path style="fill:#8A4325;" d="M141.517,152.789l11.314-11.314l45.255,45.255l-11.314,11.314L141.517,152.789z"/>
	<path style="fill:#8A4325;" d="M265.938,277.253l11.314-11.314l45.255,45.255l-11.314,11.314L265.938,277.253z"/>
	<path style="fill:#8A4325;" d="M112,224h64v16h-64V224z"/>
	<path style="fill:#8A4325;" d="M288,224h64v16h-64V224z"/>
	<path style="fill:#8A4325;" d="M141.516,311.193l45.255-45.255l11.314,11.314l-45.255,45.255L141.516,311.193z"/>
	<path style="fill:#8A4325;" d="M265.94,186.732l45.255-45.255l11.314,11.314l-45.255,45.255L265.94,186.732z"/>
</g>
<g>
</g>
<g>
</g>
<g>
</g>
<g>
</g>
<g>
</g>
<g>
</g>
<g>
</g>
<g>
</g>
<g>
</g>
<g>
</g>
<g>
</g>
<g>
</g>
<g>
</g>
<g>
</g>
<g>
</g>
</svg>
