<svg width="322" height="348" viewBox="0 0 322 348" fill="none" xmlns="http://www.w3.org/2000/svg">
<g clip-path="url(#clip0)">
<path d="M252.726 200.722C252.726 200.722 212.099 173.63 212.048 173.596C209.125 171.646 205.187 172.674 203.388 175.811C201.586 178.955 202.543 183.234 205.439 185.163C205.439 185.163 246.091 212.273 246.116 212.29C249.039 214.238 252.973 213.236 254.77 210.075C256.567 206.913 255.651 202.671 252.726 200.722Z" fill="white"/>
<path d="M187.34 158.309C183.323 158.308 180.294 162.441 181.213 166.666C181.578 168.349 182.648 169.877 184.058 170.843C185.026 171.505 186.154 171.903 187.326 171.903C189.527 171.903 191.533 170.7 192.684 168.676C195.135 164.362 192.054 158.31 187.34 158.309Z" fill="white"/>
<path d="M122.217 175.46C120.443 172.406 116.353 171.419 113.543 173.337C113.543 173.337 73.1788 200.845 73.1109 200.891C70.2022 202.873 69.3148 207.12 71.1468 210.261C72.2481 212.15 74.3731 213.257 76.4768 213.321C77.6604 213.357 78.8371 213.063 79.8213 212.392C79.8213 212.392 120.225 184.85 120.254 184.83C123.162 182.849 124.045 178.605 122.217 175.46Z" fill="white"/>
<path d="M138.165 157.786C135.244 157.786 132.685 160.004 132.039 163.079C131.159 167.268 134.228 171.379 138.177 171.379C141.092 171.379 143.666 169.162 144.309 166.084C145.19 161.87 142.15 157.786 138.165 157.786Z" fill="white"/>
<path d="M320.457 309.573C318.178 306.74 314.206 306.441 311.585 308.905C304.879 315.206 298.673 321.739 289.874 324.367C280.092 327.289 270.796 324.983 261.944 320.2L294.697 201.102C295.512 198.139 294.373 194.955 291.928 193.353L261.625 173.51V115.564C261.625 111.811 258.809 108.768 255.336 108.768H242.758V88.377C242.758 84.6237 239.942 81.5801 236.469 81.5801H216.658V61.1895C216.658 57.4363 213.843 54.3927 210.369 54.3927H179.867V6.81462C179.867 3.0614 177.052 0.0177612 173.578 0.0177612H148.422C144.949 0.0177612 142.133 3.0614 142.133 6.81462V54.3927H111.631C108.158 54.3927 105.342 57.4363 105.342 61.1895V81.5801H85.5317C82.0582 81.5801 79.2426 84.6237 79.2426 88.377V108.768H66.6645C63.1911 108.768 60.3755 111.811 60.3755 115.564V173.51L30.0736 193.352C27.6271 194.954 26.4894 198.139 27.3045 201.102C27.3045 201.102 59.9767 319.904 59.9906 319.956C59.4327 317.927 49.369 316.592 47.5898 316.343C29.278 313.782 15.3534 323.696 2.16275 336.091C-0.458525 338.555 -0.735243 342.847 1.54328 345.68C3.71866 348.383 7.76692 348.837 10.4152 346.349C24.0046 333.582 39.3254 323.85 57.3058 333.567C73.5718 342.356 90.4088 346.125 107.351 336.49C121.012 328.718 134.195 322.008 149.443 329.854L165.12 337.922C178.532 344.825 193.845 344.666 207.13 337.485C215.318 333.061 223.639 327.174 232.99 326.479C242.157 325.799 251.015 329.487 259.069 333.844C269.71 339.594 282.166 340.742 293.592 337.222C304.117 333.98 311.776 326.735 319.837 319.161C322.459 316.699 322.736 312.406 320.457 309.573ZM249.047 122.361V165.273L183.516 122.361H249.047ZM154.711 13.6115H167.289V54.3927H154.711V13.6115V13.6115ZM117.92 67.9864H204.08V81.5801H117.92V67.9864V67.9864ZM72.9536 122.361H138.484L72.9536 165.273V122.361ZM154.711 317.509C154.712 316.302 145.746 314.074 144.573 313.799C133.628 311.239 121.877 312.864 111.954 318.509C104.755 322.604 97.8085 327.382 89.5743 328.528C89.5592 328.53 89.5441 328.532 89.529 328.534C84.7178 329.166 79.7935 328.783 75.1371 327.316L40.7442 202.26L154.711 127.63C154.711 127.63 154.711 317.502 154.711 317.509ZM91.8207 108.768V95.1738H230.18V108.768H91.8207ZM250.319 314.753C250.388 312.65 232.685 312.669 231.499 312.804C220.582 314.052 211.138 320.122 201.505 325.328C190.124 331.478 178.414 329.71 167.289 323.982V127.63L281.256 202.26L250.319 314.753Z" fill="white"/>
</g>
<defs>
<clipPath id="clip0">
<rect width="322" height="348" fill="white"/>
</clipPath>
</defs>
</svg>
